# Blender v3.6.5 OBJ File: ''
# www.blender.org
mtllib beam_low_res.mtl
o 立方体
v -5.060663 -1.000000 1.000000
v -5.060663 1.000000 1.000000
v -5.060663 -1.000000 -1.000000
v -5.060663 1.000000 -1.000000
v 5.060663 -1.000000 1.000000
v 5.060663 1.000000 1.000000
v 5.060663 -1.000000 -1.000000
v 5.060663 1.000000 -1.000000
v -5.060663 -1.000000 0.000000
v -5.060663 0.000000 1.000000
v -5.060663 1.000000 0.000000
v -5.060663 0.000000 -1.000000
v 0.000000 -1.000000 -1.000000
v 0.000000 1.000000 -1.000000
v 5.060663 0.000000 -1.000000
v 5.060663 -1.000000 0.000000
v 5.060663 1.000000 0.000000
v 5.060663 0.000000 1.000000
v 0.000000 -1.000000 1.000000
v 0.000000 1.000000 1.000000
v 0.000000 1.000000 0.000000
v 0.000000 -1.000000 0.000000
v 0.000000 0.000000 1.000000
v 5.060663 0.000000 0.000000
v 0.000000 0.000000 -1.000000
v -5.060663 0.000000 0.000000
v -5.060663 -1.000000 0.500000
v -5.060663 0.500000 1.000000
v -5.060663 1.000000 -0.500000
v -5.060663 -0.500000 -1.000000
v -2.530332 -1.000000 -1.000000
v 2.530332 1.000000 -1.000000
v 5.060663 -0.500000 -1.000000
v 5.060663 -1.000000 -0.500000
v 5.060663 1.000000 0.500000
v 5.060663 -0.500000 1.000000
v 2.530332 -1.000000 1.000000
v -2.530332 1.000000 1.000000
v -5.060663 -1.000000 -0.500000
v -5.060663 -0.500000 1.000000
v -5.060663 1.000000 0.500000
v -5.060663 0.500000 -1.000000
v 2.530332 -1.000000 -1.000000
v -2.530332 1.000000 -1.000000
v 5.060663 0.500000 -1.000000
v 5.060663 -1.000000 0.500000
v 5.060663 1.000000 -0.500000
v 5.060663 0.500000 1.000000
v -2.530332 -1.000000 1.000000
v 2.530332 1.000000 1.000000
v 0.000000 1.000000 0.500000
v 0.000000 1.000000 -0.500000
v 2.530332 1.000000 0.000000
v -2.530332 1.000000 0.000000
v 0.000000 -1.000000 0.500000
v 0.000000 -1.000000 -0.500000
v -2.530332 -1.000000 0.000000
v 2.530332 -1.000000 0.000000
v -2.530332 0.000000 1.000000
v 2.530332 0.000000 1.000000
v 0.000000 -0.500000 1.000000
v 0.000000 0.500000 1.000000
v 5.060663 0.000000 0.500000
v 5.060663 0.000000 -0.500000
v 5.060663 -0.500000 0.000000
v 5.060663 0.500000 0.000000
v 2.530332 0.000000 -1.000000
v -2.530332 0.000000 -1.000000
v 0.000000 -0.500000 -1.000000
v 0.000000 0.500000 -1.000000
v -5.060663 0.000000 -0.500000
v -5.060663 0.000000 0.500000
v -5.060663 -0.500000 0.000000
v -5.060663 0.500000 0.000000
v -5.060663 0.500000 0.500000
v -5.060663 -0.500000 0.500000
v -5.060663 -0.500000 -0.500000
v -2.530332 0.500000 -1.000000
v -2.530332 -0.500000 -1.000000
v 2.530332 -0.500000 -1.000000
v 5.060663 0.500000 -0.500000
v 5.060663 -0.500000 -0.500000
v 5.060663 -0.500000 0.500000
v 2.530332 0.500000 1.000000
v 2.530332 -0.500000 1.000000
v -2.530332 -0.500000 1.000000
v 2.530332 -1.000000 -0.500000
v -2.530332 -1.000000 -0.500000
v -2.530332 -1.000000 0.500000
v -2.530332 1.000000 -0.500000
v 2.530332 1.000000 -0.500000
v 2.530332 1.000000 0.500000
v -2.530332 1.000000 0.500000
v 2.530332 -1.000000 0.500000
v -2.530332 0.500000 1.000000
v 5.060663 0.500000 0.500000
v 2.530332 0.500000 -1.000000
v -5.060663 0.500000 -0.500000
v -3.795497 -1.000000 -1.000000
v 3.795497 1.000000 -1.000000
v 3.795497 -1.000000 1.000000
v -3.795497 1.000000 1.000000
v 1.265166 -1.000000 -1.000000
v -1.265166 1.000000 -1.000000
v -1.265166 -1.000000 1.000000
v 1.265166 1.000000 1.000000
v 3.795497 1.000000 0.000000
v -1.265166 1.000000 0.000000
v -3.795497 -1.000000 0.000000
v 1.265166 -1.000000 0.000000
v -3.795497 0.000000 1.000000
v 1.265166 0.000000 1.000000
v 3.795497 0.000000 -1.000000
v -1.265166 0.000000 -1.000000
v -1.265166 -1.000000 -1.000000
v 1.265166 1.000000 -1.000000
v 1.265166 -1.000000 1.000000
v -1.265166 1.000000 1.000000
v 3.795497 -1.000000 -1.000000
v -3.795497 1.000000 -1.000000
v -3.795497 -1.000000 1.000000
v 3.795497 1.000000 1.000000
v 1.265166 1.000000 0.000000
v -3.795497 1.000000 0.000000
v -1.265166 -1.000000 0.000000
v 3.795497 -1.000000 0.000000
v -1.265166 0.000000 1.000000
v 3.795497 0.000000 1.000000
v 1.265166 0.000000 -1.000000
v -3.795497 0.000000 -1.000000
v -1.265166 0.500000 -1.000000
v -3.795497 0.500000 -1.000000
v -1.265166 -0.500000 -1.000000
v -3.795497 -0.500000 -1.000000
v 3.795497 -0.500000 -1.000000
v 1.265166 -0.500000 -1.000000
v 1.265166 0.500000 1.000000
v 3.795497 0.500000 1.000000
v 1.265166 -0.500000 1.000000
v 3.795497 -0.500000 1.000000
v -3.795497 -0.500000 1.000000
v -1.265166 -0.500000 1.000000
v 1.265166 -1.000000 -0.500000
v 3.795497 -1.000000 -0.500000
v -3.795497 -1.000000 -0.500000
v -1.265166 -1.000000 -0.500000
v -3.795497 -1.000000 0.500000
v -1.265166 -1.000000 0.500000
v -1.265166 1.000000 -0.500000
v -3.795497 1.000000 -0.500000
v 3.795497 1.000000 -0.500000
v 1.265166 1.000000 -0.500000
v 3.795497 1.000000 0.500000
v 1.265166 1.000000 0.500000
v -1.265166 1.000000 0.500000
v -3.795497 1.000000 0.500000
v 1.265166 -1.000000 0.500000
v 3.795497 -1.000000 0.500000
v -3.795497 0.500000 1.000000
v -1.265166 0.500000 1.000000
v 3.795497 0.500000 -1.000000
v 1.265166 0.500000 -1.000000
vt 0.625000 0.187500
vt 0.562500 0.250000
vt 0.562500 0.187500
vt 0.625000 0.468750
vt 0.562500 0.500000
vt 0.562500 0.468750
vt 0.625000 0.687500
vt 0.562500 0.750000
vt 0.562500 0.687500
vt 0.625000 0.968750
vt 0.562500 1.000000
vt 0.562500 0.968750
vt 0.375000 0.687500
vt 0.343750 0.750000
vt 0.343750 0.687500
vt 0.875000 0.687500
vt 0.843750 0.750000
vt 0.843750 0.687500
vt 0.750000 0.687500
vt 0.718750 0.750000
vt 0.718750 0.687500
vt 0.750000 0.562500
vt 0.718750 0.625000
vt 0.718750 0.562500
vt 0.875000 0.562500
vt 0.843750 0.625000
vt 0.843750 0.562500
vt 0.250000 0.687500
vt 0.218750 0.750000
vt 0.218750 0.687500
vt 0.250000 0.562500
vt 0.218750 0.625000
vt 0.218750 0.562500
vt 0.375000 0.562500
vt 0.343750 0.625000
vt 0.343750 0.562500
vt 0.500000 0.968750
vt 0.437500 1.000000
vt 0.437500 0.968750
vt 0.500000 0.843750
vt 0.437500 0.875000
vt 0.437500 0.843750
vt 0.625000 0.843750
vt 0.562500 0.875000
vt 0.562500 0.843750
vt 0.500000 0.687500
vt 0.437500 0.750000
vt 0.437500 0.687500
vt 0.500000 0.562500
vt 0.437500 0.625000
vt 0.437500 0.562500
vt 0.625000 0.562500
vt 0.562500 0.625000
vt 0.562500 0.562500
vt 0.500000 0.468750
vt 0.437500 0.500000
vt 0.437500 0.468750
vt 0.500000 0.343750
vt 0.437500 0.375000
vt 0.437500 0.343750
vt 0.625000 0.343750
vt 0.562500 0.375000
vt 0.562500 0.343750
vt 0.500000 0.187500
vt 0.437500 0.250000
vt 0.437500 0.187500
vt 0.500000 0.062500
vt 0.437500 0.125000
vt 0.437500 0.062500
vt 0.625000 0.062500
vt 0.562500 0.125000
vt 0.562500 0.062500
vt 0.500000 0.125000
vt 0.562500 0.000000
vt 0.500000 0.000000
vt 0.625000 0.000000
vt 0.375000 0.125000
vt 0.375000 0.062500
vt 0.437500 0.000000
vt 0.375000 0.000000
vt 0.375000 0.250000
vt 0.375000 0.187500
vt 0.500000 0.375000
vt 0.562500 0.281250
vt 0.500000 0.312500
vt 0.500000 0.281250
vt 0.625000 0.281250
vt 0.562500 0.312500
vt 0.375000 0.375000
vt 0.375000 0.343750
vt 0.437500 0.281250
vt 0.375000 0.312500
vt 0.375000 0.281250
vt 0.437500 0.312500
vt 0.375000 0.500000
vt 0.375000 0.468750
vt 0.437500 0.406250
vt 0.375000 0.437500
vt 0.375000 0.406250
vt 0.500000 0.406250
vt 0.437500 0.437500
vt 0.500000 0.625000
vt 0.500000 0.500000
vt 0.625000 0.500000
vt 0.375000 0.625000
vt 0.375000 0.750000
vt 0.500000 0.875000
vt 0.562500 0.781250
vt 0.500000 0.812500
vt 0.500000 0.781250
vt 0.625000 0.781250
vt 0.562500 0.812500
vt 0.375000 0.875000
vt 0.375000 0.843750
vt 0.437500 0.781250
vt 0.375000 0.812500
vt 0.375000 0.781250
vt 0.437500 0.812500
vt 0.375000 1.000000
vt 0.375000 0.968750
vt 0.437500 0.906250
vt 0.375000 0.937500
vt 0.375000 0.906250
vt 0.500000 0.906250
vt 0.437500 0.937500
vt 0.312500 0.562500
vt 0.281250 0.625000
vt 0.281250 0.562500
vt 0.312500 0.500000
vt 0.281250 0.500000
vt 0.343750 0.500000
vt 0.187500 0.562500
vt 0.156250 0.625000
vt 0.156250 0.562500
vt 0.187500 0.500000
vt 0.156250 0.500000
vt 0.250000 0.500000
vt 0.218750 0.500000
vt 0.187500 0.687500
vt 0.156250 0.750000
vt 0.156250 0.687500
vt 0.187500 0.625000
vt 0.250000 0.625000
vt 0.812500 0.562500
vt 0.781250 0.625000
vt 0.781250 0.562500
vt 0.812500 0.500000
vt 0.781250 0.500000
vt 0.875000 0.500000
vt 0.843750 0.500000
vt 0.687500 0.562500
vt 0.656250 0.625000
vt 0.656250 0.562500
vt 0.687500 0.500000
vt 0.656250 0.500000
vt 0.750000 0.500000
vt 0.718750 0.500000
vt 0.687500 0.687500
vt 0.656250 0.750000
vt 0.656250 0.687500
vt 0.687500 0.625000
vt 0.750000 0.625000
vt 0.812500 0.687500
vt 0.781250 0.750000
vt 0.781250 0.687500
vt 0.812500 0.625000
vt 0.875000 0.625000
vt 0.312500 0.687500
vt 0.281250 0.750000
vt 0.281250 0.687500
vt 0.312500 0.625000
vt 0.500000 1.000000
vt 0.562500 0.906250
vt 0.500000 0.937500
vt 0.625000 0.906250
vt 0.562500 0.937500
vt 0.500000 0.750000
vt 0.625000 0.625000
vt 0.562500 0.406250
vt 0.500000 0.437500
vt 0.625000 0.406250
vt 0.562500 0.437500
vt 0.500000 0.250000
vt 0.625000 0.125000
vt 0.625000 0.375000
vt 0.625000 0.875000
vt 0.250000 0.750000
vt 0.750000 0.750000
vt 0.625000 0.750000
vt 0.125000 0.687500
vt 0.125000 0.625000
vt 0.125000 0.750000
vt 0.125000 0.562500
vt 0.125000 0.500000
vt 0.625000 0.250000
vt 0.625000 0.312500
vt 0.625000 0.812500
vt 0.187500 0.750000
vt 0.687500 0.750000
vt 0.812500 0.750000
vt 0.312500 0.750000
vt 0.625000 0.937500
vt 0.625000 0.437500
vt 0.625000 1.000000
vt 0.875000 0.750000
vn -1.0000 0.0000 0.0000
vn 0.0000 0.0000 -1.0000
vn 1.0000 0.0000 0.0000
vn 0.0000 0.0000 1.0000
vn 0.0000 -1.0000 0.0000
vn 0.0000 1.0000 0.0000
usemtl None
s off
f 29/1/1 42/2/1 98/3/1
f 100/4/2 45/5/2 161/6/2
f 35/7/3 48/8/3 96/9/3
f 102/10/4 28/11/4 159/12/4
f 46/13/5 101/14/5 158/15/5
f 41/16/6 102/17/6 156/18/6
f 51/19/6 106/20/6 154/21/6
f 52/22/6 123/23/6 152/24/6
f 29/25/6 124/26/6 150/27/6
f 55/28/5 105/29/5 148/30/5
f 56/31/5 125/32/5 146/33/5
f 34/34/5 126/35/5 144/36/5
f 111/37/4 40/38/4 141/39/4
f 112/40/4 61/41/4 139/42/4
f 106/43/4 62/44/4 137/45/4
f 63/46/3 36/47/3 83/48/3
f 64/49/3 65/50/3 82/51/3
f 47/52/3 66/53/3 81/54/3
f 113/55/2 33/56/2 135/57/2
f 114/58/2 69/59/2 133/60/2
f 104/61/2 70/62/2 131/63/2
f 71/64/1 30/65/1 77/66/1
f 72/67/1 73/68/1 76/69/1
f 41/70/1 74/71/1 75/72/1
f 75/72/1 26/73/1 72/67/1
f 28/74/1 72/67/1 10/75/1
f 2/76/1 75/72/1 28/74/1
f 76/69/1 9/77/1 27/78/1
f 40/79/1 27/78/1 1/80/1
f 10/75/1 76/69/1 40/79/1
f 77/66/1 3/81/1 39/82/1
f 73/68/1 39/82/1 9/77/1
f 26/73/1 77/66/1 73/68/1
f 131/63/2 25/83/2 114/58/2
f 132/84/2 68/85/2 130/86/2
f 120/87/2 78/88/2 132/84/2
f 133/60/2 13/89/2 115/90/2
f 134/91/2 31/92/2 99/93/2
f 130/86/2 79/94/2 134/91/2
f 135/57/2 7/95/2 119/96/2
f 136/97/2 43/98/2 103/99/2
f 129/100/2 80/101/2 136/97/2
f 81/54/3 24/102/3 64/49/3
f 45/5/3 64/49/3 15/103/3
f 8/104/3 81/54/3 45/5/3
f 82/51/3 16/105/3 34/34/3
f 33/56/3 34/34/3 7/95/3
f 15/103/3 82/51/3 33/56/3
f 83/48/3 5/106/3 46/13/3
f 65/50/3 46/13/3 16/105/3
f 24/102/3 83/48/3 65/50/3
f 137/45/4 23/107/4 112/40/4
f 138/108/4 60/109/4 128/110/4
f 122/111/4 84/112/4 138/108/4
f 139/42/4 19/113/4 117/114/4
f 140/115/4 37/116/4 101/117/4
f 128/110/4 85/118/4 140/115/4
f 141/39/4 1/119/4 121/120/4
f 142/121/4 49/122/4 105/123/4
f 127/124/4 86/125/4 142/121/4
f 87/126/5 110/127/5 143/128/5
f 43/129/5 143/128/5 103/130/5
f 7/95/5 144/36/5 119/131/5
f 88/132/5 109/133/5 145/134/5
f 31/135/5 145/134/5 99/136/5
f 13/137/5 146/33/5 115/138/5
f 89/139/5 121/140/5 147/141/5
f 57/142/5 147/141/5 109/133/5
f 22/143/5 148/30/5 125/32/5
f 90/144/6 108/145/6 149/146/6
f 44/147/6 149/146/6 104/148/6
f 4/149/6 150/27/6 120/150/6
f 91/151/6 107/152/6 151/153/6
f 32/154/6 151/153/6 100/155/6
f 14/156/6 152/24/6 116/157/6
f 92/158/6 122/159/6 153/160/6
f 53/161/6 153/160/6 107/152/6
f 21/162/6 154/21/6 123/23/6
f 93/163/6 118/164/6 155/165/6
f 54/166/6 155/165/6 108/145/6
f 11/167/6 156/18/6 124/26/6
f 94/168/5 117/169/5 157/170/5
f 58/171/5 157/170/5 110/127/5
f 16/105/5 158/15/5 126/35/5
f 159/12/4 10/172/4 111/37/4
f 160/173/4 59/174/4 127/124/4
f 118/175/4 95/176/4 160/173/4
f 96/9/3 18/177/3 63/46/3
f 66/53/3 63/46/3 24/102/3
f 17/178/3 96/9/3 66/53/3
f 161/6/2 15/103/2 113/55/2
f 162/179/2 67/180/2 129/100/2
f 116/181/2 97/182/2 162/179/2
f 98/3/1 12/183/1 71/64/1
f 74/71/1 71/64/1 26/73/1
f 11/184/1 98/3/1 74/71/1
f 14/185/2 162/179/2 70/62/2
f 70/62/2 129/100/2 25/83/2
f 97/182/2 113/55/2 67/180/2
f 20/186/4 160/173/4 62/44/4
f 62/44/4 127/124/4 23/107/4
f 95/176/4 111/37/4 59/174/4
f 126/35/5 94/168/5 58/171/5
f 110/127/5 55/28/5 22/143/5
f 157/170/5 19/187/5 55/28/5
f 124/26/6 93/163/6 54/166/6
f 108/145/6 51/19/6 21/162/6
f 155/165/6 20/188/6 51/19/6
f 123/23/6 92/158/6 53/161/6
f 107/152/6 35/7/6 17/178/6
f 153/160/6 6/189/6 35/7/6
f 116/157/6 91/151/6 32/154/6
f 100/155/6 47/52/6 8/104/6
f 151/153/6 17/178/6 47/52/6
f 120/150/6 90/144/6 44/147/6
f 104/148/6 52/22/6 14/156/6
f 149/146/6 21/162/6 52/22/6
f 125/32/5 89/139/5 57/142/5
f 109/133/5 27/190/5 9/191/5
f 147/141/5 1/192/5 27/190/5
f 115/138/5 88/132/5 31/135/5
f 99/136/5 39/193/5 3/194/5
f 145/134/5 9/191/5 39/193/5
f 119/131/5 87/126/5 43/129/5
f 103/130/5 56/31/5 13/137/5
f 143/128/5 22/143/5 56/31/5
f 23/107/4 142/121/4 61/41/4
f 61/41/4 105/123/4 19/113/4
f 86/125/4 121/120/4 49/122/4
f 18/177/4 140/115/4 36/47/4
f 36/47/4 101/117/4 5/106/4
f 85/118/4 117/114/4 37/116/4
f 6/189/4 138/108/4 48/8/4
f 48/8/4 128/110/4 18/177/4
f 84/112/4 112/40/4 60/109/4
f 25/83/2 136/97/2 69/59/2
f 69/59/2 103/99/2 13/89/2
f 80/101/2 119/96/2 43/98/2
f 12/183/2 134/91/2 30/65/2
f 30/65/2 99/93/2 3/81/2
f 79/94/2 115/90/2 31/92/2
f 4/195/2 132/84/2 42/2/2
f 42/2/2 130/86/2 12/183/2
f 78/88/2 114/58/2 68/85/2
f 44/196/2 131/63/2 78/88/2
f 68/85/2 133/60/2 79/94/2
f 67/180/2 135/57/2 80/101/2
f 50/197/4 137/45/4 84/112/4
f 60/109/4 139/42/4 85/118/4
f 59/174/4 141/39/4 86/125/4
f 144/36/5 58/171/5 87/126/5
f 146/33/5 57/142/5 88/132/5
f 148/30/5 49/198/5 89/139/5
f 150/27/6 54/166/6 90/144/6
f 152/24/6 53/161/6 91/151/6
f 154/21/6 50/199/6 92/158/6
f 156/18/6 38/200/6 93/163/6
f 158/15/5 37/201/5 94/168/5
f 38/202/4 159/12/4 95/176/4
f 32/203/2 161/6/2 97/182/2
f 29/1/1 4/195/1 42/2/1
f 100/4/2 8/104/2 45/5/2
f 35/7/3 6/189/3 48/8/3
f 102/10/4 2/204/4 28/11/4
f 46/13/5 5/106/5 101/14/5
f 41/16/6 2/205/6 102/17/6
f 51/19/6 20/188/6 106/20/6
f 52/22/6 21/162/6 123/23/6
f 29/25/6 11/167/6 124/26/6
f 55/28/5 19/187/5 105/29/5
f 56/31/5 22/143/5 125/32/5
f 34/34/5 16/105/5 126/35/5
f 111/37/4 10/172/4 40/38/4
f 112/40/4 23/107/4 61/41/4
f 106/43/4 20/186/4 62/44/4
f 63/46/3 18/177/3 36/47/3
f 64/49/3 24/102/3 65/50/3
f 47/52/3 17/178/3 66/53/3
f 113/55/2 15/103/2 33/56/2
f 114/58/2 25/83/2 69/59/2
f 104/61/2 14/185/2 70/62/2
f 71/64/1 12/183/1 30/65/1
f 72/67/1 26/73/1 73/68/1
f 41/70/1 11/184/1 74/71/1
f 75/72/1 74/71/1 26/73/1
f 28/74/1 75/72/1 72/67/1
f 2/76/1 41/70/1 75/72/1
f 76/69/1 73/68/1 9/77/1
f 40/79/1 76/69/1 27/78/1
f 10/75/1 72/67/1 76/69/1
f 77/66/1 30/65/1 3/81/1
f 73/68/1 77/66/1 39/82/1
f 26/73/1 71/64/1 77/66/1
f 131/63/2 70/62/2 25/83/2
f 132/84/2 78/88/2 68/85/2
f 120/87/2 44/196/2 78/88/2
f 133/60/2 69/59/2 13/89/2
f 134/91/2 79/94/2 31/92/2
f 130/86/2 68/85/2 79/94/2
f 135/57/2 33/56/2 7/95/2
f 136/97/2 80/101/2 43/98/2
f 129/100/2 67/180/2 80/101/2
f 81/54/3 66/53/3 24/102/3
f 45/5/3 81/54/3 64/49/3
f 8/104/3 47/52/3 81/54/3
f 82/51/3 65/50/3 16/105/3
f 33/56/3 82/51/3 34/34/3
f 15/103/3 64/49/3 82/51/3
f 83/48/3 36/47/3 5/106/3
f 65/50/3 83/48/3 46/13/3
f 24/102/3 63/46/3 83/48/3
f 137/45/4 62/44/4 23/107/4
f 138/108/4 84/112/4 60/109/4
f 122/111/4 50/197/4 84/112/4
f 139/42/4 61/41/4 19/113/4
f 140/115/4 85/118/4 37/116/4
f 128/110/4 60/109/4 85/118/4
f 141/39/4 40/38/4 1/119/4
f 142/121/4 86/125/4 49/122/4
f 127/124/4 59/174/4 86/125/4
f 87/126/5 58/171/5 110/127/5
f 43/129/5 87/126/5 143/128/5
f 7/95/5 34/34/5 144/36/5
f 88/132/5 57/142/5 109/133/5
f 31/135/5 88/132/5 145/134/5
f 13/137/5 56/31/5 146/33/5
f 89/139/5 49/198/5 121/140/5
f 57/142/5 89/139/5 147/141/5
f 22/143/5 55/28/5 148/30/5
f 90/144/6 54/166/6 108/145/6
f 44/147/6 90/144/6 149/146/6
f 4/149/6 29/25/6 150/27/6
f 91/151/6 53/161/6 107/152/6
f 32/154/6 91/151/6 151/153/6
f 14/156/6 52/22/6 152/24/6
f 92/158/6 50/199/6 122/159/6
f 53/161/6 92/158/6 153/160/6
f 21/162/6 51/19/6 154/21/6
f 93/163/6 38/200/6 118/164/6
f 54/166/6 93/163/6 155/165/6
f 11/167/6 41/16/6 156/18/6
f 94/168/5 37/201/5 117/169/5
f 58/171/5 94/168/5 157/170/5
f 16/105/5 46/13/5 158/15/5
f 159/12/4 28/11/4 10/172/4
f 160/173/4 95/176/4 59/174/4
f 118/175/4 38/202/4 95/176/4
f 96/9/3 48/8/3 18/177/3
f 66/53/3 96/9/3 63/46/3
f 17/178/3 35/7/3 96/9/3
f 161/6/2 45/5/2 15/103/2
f 162/179/2 97/182/2 67/180/2
f 116/181/2 32/203/2 97/182/2
f 98/3/1 42/2/1 12/183/1
f 74/71/1 98/3/1 71/64/1
f 11/184/1 29/1/1 98/3/1
f 14/185/2 116/181/2 162/179/2
f 70/62/2 162/179/2 129/100/2
f 97/182/2 161/6/2 113/55/2
f 20/186/4 118/175/4 160/173/4
f 62/44/4 160/173/4 127/124/4
f 95/176/4 159/12/4 111/37/4
f 126/35/5 158/15/5 94/168/5
f 110/127/5 157/170/5 55/28/5
f 157/170/5 117/169/5 19/187/5
f 124/26/6 156/18/6 93/163/6
f 108/145/6 155/165/6 51/19/6
f 155/165/6 118/164/6 20/188/6
f 123/23/6 154/21/6 92/158/6
f 107/152/6 153/160/6 35/7/6
f 153/160/6 122/159/6 6/189/6
f 116/157/6 152/24/6 91/151/6
f 100/155/6 151/153/6 47/52/6
f 151/153/6 107/152/6 17/178/6
f 120/150/6 150/27/6 90/144/6
f 104/148/6 149/146/6 52/22/6
f 149/146/6 108/145/6 21/162/6
f 125/32/5 148/30/5 89/139/5
f 109/133/5 147/141/5 27/190/5
f 147/141/5 121/140/5 1/192/5
f 115/138/5 146/33/5 88/132/5
f 99/136/5 145/134/5 39/193/5
f 145/134/5 109/133/5 9/191/5
f 119/131/5 144/36/5 87/126/5
f 103/130/5 143/128/5 56/31/5
f 143/128/5 110/127/5 22/143/5
f 23/107/4 127/124/4 142/121/4
f 61/41/4 142/121/4 105/123/4
f 86/125/4 141/39/4 121/120/4
f 18/177/4 128/110/4 140/115/4
f 36/47/4 140/115/4 101/117/4
f 85/118/4 139/42/4 117/114/4
f 6/189/4 122/111/4 138/108/4
f 48/8/4 138/108/4 128/110/4
f 84/112/4 137/45/4 112/40/4
f 25/83/2 129/100/2 136/97/2
f 69/59/2 136/97/2 103/99/2
f 80/101/2 135/57/2 119/96/2
f 12/183/2 130/86/2 134/91/2
f 30/65/2 134/91/2 99/93/2
f 79/94/2 133/60/2 115/90/2
f 4/195/2 120/87/2 132/84/2
f 42/2/2 132/84/2 130/86/2
f 78/88/2 131/63/2 114/58/2
f 44/196/2 104/61/2 131/63/2
f 68/85/2 114/58/2 133/60/2
f 67/180/2 113/55/2 135/57/2
f 50/197/4 106/43/4 137/45/4
f 60/109/4 112/40/4 139/42/4
f 59/174/4 111/37/4 141/39/4
f 144/36/5 126/35/5 58/171/5
f 146/33/5 125/32/5 57/142/5
f 148/30/5 105/29/5 49/198/5
f 150/27/6 124/26/6 54/166/6
f 152/24/6 123/23/6 53/161/6
f 154/21/6 106/20/6 50/199/6
f 156/18/6 102/17/6 38/200/6
f 158/15/5 101/14/5 37/201/5
f 38/202/4 102/10/4 159/12/4
f 32/203/2 100/4/2 161/6/2
